<svg width="340" height="127" viewBox="0 0 340 127" fill="none" xmlns="http://www.w3.org/2000/svg">
<path d="M101.376 118.216C100.224 118.216 99.344 117.864 98.736 117.16C98.128 116.456 97.824 115.448 97.824 114.136V101.896C97.824 101.576 97.904 101.336 98.064 101.176C98.224 101 98.464 100.912 98.784 100.912C99.088 100.912 99.328 101 99.504 101.176C99.68 101.336 99.768 101.576 99.768 101.896V113.992C99.768 114.856 99.936 115.504 100.272 115.936C100.624 116.352 101.136 116.56 101.808 116.56C101.952 116.56 102.08 116.552 102.192 116.536C102.304 116.52 102.416 116.512 102.528 116.512C102.704 116.496 102.824 116.536 102.888 116.632C102.968 116.728 103.008 116.92 103.008 117.208C103.008 117.496 102.944 117.712 102.816 117.856C102.688 118 102.48 118.096 102.192 118.144C102.064 118.16 101.928 118.176 101.784 118.192C101.64 118.208 101.504 118.216 101.376 118.216ZM105.886 118.12C105.566 118.12 105.326 118.032 105.166 117.856C105.006 117.664 104.926 117.4 104.926 117.064V107.248C104.926 106.912 105.006 106.656 105.166 106.48C105.326 106.304 105.566 106.216 105.886 106.216C106.19 106.216 106.43 106.304 106.606 106.48C106.782 106.656 106.87 106.912 106.87 107.248V117.064C106.87 117.4 106.782 117.664 106.606 117.856C106.446 118.032 106.206 118.12 105.886 118.12ZM105.886 103.528C105.486 103.528 105.174 103.424 104.95 103.216C104.726 102.992 104.614 102.696 104.614 102.328C104.614 101.944 104.726 101.656 104.95 101.464C105.174 101.256 105.486 101.152 105.886 101.152C106.302 101.152 106.614 101.256 106.822 101.464C107.046 101.656 107.158 101.944 107.158 102.328C107.158 102.696 107.046 102.992 106.822 103.216C106.614 103.424 106.302 103.528 105.886 103.528ZM115.184 118.216C114.272 118.216 113.504 118.056 112.88 117.736C112.272 117.4 111.816 116.92 111.512 116.296C111.208 115.656 111.056 114.88 111.056 113.968V107.848H109.448C109.176 107.848 108.968 107.784 108.824 107.656C108.68 107.512 108.608 107.32 108.608 107.08C108.608 106.84 108.68 106.656 108.824 106.528C108.968 106.4 109.176 106.336 109.448 106.336H111.056V103.576C111.056 103.256 111.144 103.016 111.32 102.856C111.496 102.68 111.736 102.592 112.04 102.592C112.344 102.592 112.576 102.68 112.736 102.856C112.912 103.016 113 103.256 113 103.576V106.336H116.024C116.296 106.336 116.504 106.4 116.648 106.528C116.792 106.656 116.864 106.84 116.864 107.08C116.864 107.32 116.792 107.512 116.648 107.656C116.504 107.784 116.296 107.848 116.024 107.848H113V113.776C113 114.688 113.192 115.384 113.576 115.864C113.96 116.328 114.584 116.56 115.448 116.56C115.752 116.56 116.008 116.528 116.216 116.464C116.44 116.4 116.624 116.368 116.768 116.368C116.912 116.352 117.032 116.4 117.128 116.512C117.224 116.624 117.272 116.816 117.272 117.088C117.272 117.28 117.232 117.456 117.152 117.616C117.088 117.776 116.968 117.888 116.792 117.952C116.6 118.016 116.344 118.072 116.024 118.12C115.72 118.184 115.44 118.216 115.184 118.216ZM123.27 118.216C122.358 118.216 121.59 118.056 120.966 117.736C120.358 117.4 119.902 116.92 119.598 116.296C119.294 115.656 119.142 114.88 119.142 113.968V107.848H117.534C117.262 107.848 117.054 107.784 116.91 107.656C116.766 107.512 116.694 107.32 116.694 107.08C116.694 106.84 116.766 106.656 116.91 106.528C117.054 106.4 117.262 106.336 117.534 106.336H119.142V103.576C119.142 103.256 119.23 103.016 119.406 102.856C119.582 102.68 119.822 102.592 120.126 102.592C120.43 102.592 120.662 102.68 120.822 102.856C120.998 103.016 121.086 103.256 121.086 103.576V106.336H124.11C124.382 106.336 124.59 106.4 124.734 106.528C124.878 106.656 124.95 106.84 124.95 107.08C124.95 107.32 124.878 107.512 124.734 107.656C124.59 107.784 124.382 107.848 124.11 107.848H121.086V113.776C121.086 114.688 121.278 115.384 121.662 115.864C122.046 116.328 122.67 116.56 123.534 116.56C123.838 116.56 124.094 116.528 124.302 116.464C124.526 116.4 124.71 116.368 124.854 116.368C124.998 116.352 125.118 116.4 125.214 116.512C125.31 116.624 125.358 116.816 125.358 117.088C125.358 117.28 125.318 117.456 125.238 117.616C125.174 117.776 125.054 117.888 124.878 117.952C124.686 118.016 124.43 118.072 124.11 118.12C123.806 118.184 123.526 118.216 123.27 118.216ZM130.673 118.216C129.521 118.216 128.641 117.864 128.033 117.16C127.425 116.456 127.121 115.448 127.121 114.136V101.896C127.121 101.576 127.201 101.336 127.361 101.176C127.521 101 127.761 100.912 128.081 100.912C128.385 100.912 128.625 101 128.801 101.176C128.977 101.336 129.065 101.576 129.065 101.896V113.992C129.065 114.856 129.233 115.504 129.569 115.936C129.921 116.352 130.433 116.56 131.105 116.56C131.249 116.56 131.377 116.552 131.489 116.536C131.601 116.52 131.713 116.512 131.825 116.512C132.001 116.496 132.121 116.536 132.185 116.632C132.265 116.728 132.305 116.92 132.305 117.208C132.305 117.496 132.241 117.712 132.113 117.856C131.985 118 131.777 118.096 131.489 118.144C131.361 118.16 131.225 118.176 131.081 118.192C130.937 118.208 130.801 118.216 130.673 118.216ZM139.361 118.216C138.129 118.216 137.065 117.976 136.169 117.496C135.289 117 134.601 116.304 134.105 115.408C133.625 114.512 133.385 113.44 133.385 112.192C133.385 110.976 133.625 109.92 134.105 109.024C134.585 108.112 135.241 107.4 136.073 106.888C136.921 106.376 137.897 106.12 139.001 106.12C139.785 106.12 140.489 106.256 141.113 106.528C141.737 106.784 142.265 107.16 142.697 107.656C143.145 108.152 143.481 108.752 143.705 109.456C143.945 110.16 144.065 110.952 144.065 111.832C144.065 112.088 143.993 112.28 143.849 112.408C143.705 112.52 143.497 112.576 143.225 112.576H134.873V111.304H142.769L142.385 111.616C142.385 110.752 142.257 110.024 142.001 109.432C141.745 108.824 141.369 108.36 140.873 108.04C140.393 107.72 139.785 107.56 139.049 107.56C138.233 107.56 137.537 107.752 136.961 108.136C136.401 108.504 135.977 109.024 135.689 109.696C135.401 110.352 135.257 111.12 135.257 112V112.144C135.257 113.616 135.609 114.736 136.313 115.504C137.033 116.272 138.049 116.656 139.361 116.656C139.905 116.656 140.441 116.584 140.969 116.44C141.513 116.296 142.041 116.056 142.553 115.72C142.777 115.576 142.977 115.512 143.153 115.528C143.345 115.528 143.497 115.584 143.609 115.696C143.721 115.792 143.793 115.92 143.825 116.08C143.873 116.224 143.857 116.384 143.777 116.56C143.713 116.736 143.577 116.888 143.369 117.016C142.841 117.4 142.217 117.696 141.497 117.904C140.777 118.112 140.065 118.216 139.361 118.216ZM157.506 118.216C156.466 118.216 155.554 117.968 154.77 117.472C154.002 116.976 153.402 116.28 152.97 115.384C152.554 114.472 152.346 113.4 152.346 112.168C152.346 110.92 152.554 109.848 152.97 108.952C153.402 108.04 154.002 107.344 154.77 106.864C155.554 106.368 156.466 106.12 157.506 106.12C158.562 106.12 159.466 106.384 160.218 106.912C160.97 107.44 161.474 108.152 161.73 109.048H161.466V101.896C161.466 101.576 161.546 101.336 161.706 101.176C161.882 101 162.13 100.912 162.45 100.912C162.754 100.912 162.986 101 163.146 101.176C163.322 101.336 163.41 101.576 163.41 101.896V117.16C163.41 117.48 163.33 117.728 163.17 117.904C163.01 118.08 162.77 118.168 162.45 118.168C162.146 118.168 161.906 118.08 161.73 117.904C161.57 117.728 161.49 117.48 161.49 117.16V114.88L161.754 115.216C161.498 116.128 160.986 116.856 160.218 117.4C159.466 117.944 158.562 118.216 157.506 118.216ZM157.914 116.656C158.634 116.656 159.266 116.48 159.81 116.128C160.354 115.776 160.77 115.264 161.058 114.592C161.362 113.92 161.514 113.112 161.514 112.168C161.514 110.712 161.186 109.6 160.53 108.832C159.89 108.064 159.018 107.68 157.914 107.68C157.178 107.68 156.538 107.856 155.994 108.208C155.466 108.544 155.05 109.048 154.746 109.72C154.458 110.376 154.314 111.192 154.314 112.168C154.314 113.608 154.642 114.72 155.298 115.504C155.954 116.272 156.826 116.656 157.914 116.656ZM168.042 118.168C167.722 118.168 167.474 118.08 167.298 117.904C167.138 117.728 167.058 117.48 167.058 117.16V107.152C167.058 106.832 167.138 106.592 167.298 106.432C167.458 106.256 167.69 106.168 167.994 106.168C168.298 106.168 168.53 106.256 168.69 106.432C168.866 106.592 168.954 106.832 168.954 107.152V109.096H168.714C168.97 108.152 169.458 107.424 170.178 106.912C170.898 106.4 171.786 106.128 172.842 106.096C173.082 106.08 173.274 106.136 173.418 106.264C173.562 106.376 173.642 106.576 173.658 106.864C173.674 107.136 173.61 107.352 173.466 107.512C173.322 107.672 173.098 107.768 172.794 107.8L172.41 107.848C171.322 107.944 170.482 108.296 169.89 108.904C169.314 109.496 169.026 110.312 169.026 111.352V117.16C169.026 117.48 168.938 117.728 168.762 117.904C168.602 118.08 168.362 118.168 168.042 118.168ZM180.775 118.216C179.543 118.216 178.479 117.976 177.583 117.496C176.703 117 176.015 116.304 175.519 115.408C175.039 114.512 174.799 113.44 174.799 112.192C174.799 110.976 175.039 109.92 175.519 109.024C175.999 108.112 176.655 107.4 177.487 106.888C178.335 106.376 179.311 106.12 180.415 106.12C181.199 106.12 181.903 106.256 182.527 106.528C183.151 106.784 183.679 107.16 184.111 107.656C184.559 108.152 184.895 108.752 185.119 109.456C185.359 110.16 185.479 110.952 185.479 111.832C185.479 112.088 185.407 112.28 185.263 112.408C185.119 112.52 184.911 112.576 184.639 112.576H176.287V111.304H184.183L183.799 111.616C183.799 110.752 183.671 110.024 183.415 109.432C183.159 108.824 182.783 108.36 182.287 108.04C181.807 107.72 181.199 107.56 180.463 107.56C179.647 107.56 178.951 107.752 178.375 108.136C177.815 108.504 177.391 109.024 177.103 109.696C176.815 110.352 176.671 111.12 176.671 112V112.144C176.671 113.616 177.023 114.736 177.727 115.504C178.447 116.272 179.463 116.656 180.775 116.656C181.319 116.656 181.855 116.584 182.383 116.44C182.927 116.296 183.455 116.056 183.967 115.72C184.191 115.576 184.391 115.512 184.567 115.528C184.759 115.528 184.911 115.584 185.023 115.696C185.135 115.792 185.207 115.92 185.239 116.08C185.287 116.224 185.271 116.384 185.191 116.56C185.127 116.736 184.991 116.888 184.783 117.016C184.255 117.4 183.631 117.696 182.911 117.904C182.191 118.112 181.479 118.216 180.775 118.216ZM191.965 118.216C191.165 118.216 190.445 118.064 189.805 117.76C189.181 117.44 188.685 117.008 188.317 116.464C187.949 115.92 187.765 115.312 187.765 114.64C187.765 113.776 187.981 113.096 188.413 112.6C188.861 112.104 189.589 111.752 190.597 111.544C191.621 111.336 193.013 111.232 194.773 111.232H195.853V112.504H194.797C193.501 112.504 192.477 112.568 191.725 112.696C190.989 112.808 190.469 113.008 190.165 113.296C189.877 113.584 189.733 113.992 189.733 114.52C189.733 115.176 189.957 115.712 190.405 116.128C190.869 116.544 191.493 116.752 192.277 116.752C192.917 116.752 193.477 116.6 193.957 116.296C194.453 115.992 194.837 115.576 195.109 115.048C195.397 114.52 195.541 113.912 195.541 113.224V110.488C195.541 109.496 195.341 108.784 194.941 108.352C194.541 107.904 193.885 107.68 192.973 107.68C192.413 107.68 191.853 107.752 191.293 107.896C190.733 108.04 190.141 108.272 189.517 108.592C189.293 108.704 189.101 108.744 188.941 108.712C188.781 108.664 188.653 108.576 188.557 108.448C188.461 108.32 188.405 108.176 188.389 108.016C188.373 107.84 188.405 107.672 188.485 107.512C188.581 107.352 188.725 107.224 188.917 107.128C189.621 106.776 190.317 106.52 191.005 106.36C191.693 106.2 192.349 106.12 192.973 106.12C193.981 106.12 194.813 106.288 195.469 106.624C196.125 106.944 196.613 107.44 196.933 108.112C197.253 108.768 197.413 109.616 197.413 110.656V117.16C197.413 117.48 197.333 117.728 197.173 117.904C197.029 118.08 196.813 118.168 196.525 118.168C196.221 118.168 195.989 118.08 195.829 117.904C195.669 117.728 195.589 117.48 195.589 117.16V115.288H195.805C195.677 115.896 195.429 116.416 195.061 116.848C194.709 117.28 194.269 117.616 193.741 117.856C193.213 118.096 192.621 118.216 191.965 118.216ZM202.027 118.168C201.707 118.168 201.467 118.08 201.307 117.904C201.147 117.728 201.067 117.48 201.067 117.16V107.152C201.067 106.832 201.147 106.592 201.307 106.432C201.467 106.256 201.699 106.168 202.003 106.168C202.307 106.168 202.539 106.256 202.699 106.432C202.875 106.592 202.963 106.832 202.963 107.152V109.264L202.699 108.928C203.003 108.032 203.491 107.344 204.163 106.864C204.851 106.368 205.667 106.12 206.611 106.12C207.603 106.12 208.403 106.36 209.011 106.84C209.635 107.304 210.051 108.032 210.259 109.024H209.899C210.187 108.128 210.699 107.424 211.435 106.912C212.187 106.384 213.059 106.12 214.051 106.12C214.931 106.12 215.651 106.288 216.211 106.624C216.787 106.96 217.219 107.472 217.507 108.16C217.795 108.832 217.939 109.688 217.939 110.728V117.16C217.939 117.48 217.851 117.728 217.675 117.904C217.515 118.08 217.275 118.168 216.955 118.168C216.651 118.168 216.411 118.08 216.235 117.904C216.075 117.728 215.995 117.48 215.995 117.16V110.824C215.995 109.752 215.811 108.968 215.443 108.472C215.075 107.96 214.451 107.704 213.571 107.704C212.611 107.704 211.851 108.04 211.291 108.712C210.747 109.368 210.475 110.264 210.475 111.4V117.16C210.475 117.48 210.387 117.728 210.211 117.904C210.051 118.08 209.811 118.168 209.491 118.168C209.187 118.168 208.947 118.08 208.771 117.904C208.611 117.728 208.531 117.48 208.531 117.16V110.824C208.531 109.752 208.339 108.968 207.955 108.472C207.587 107.96 206.971 107.704 206.107 107.704C205.147 107.704 204.387 108.04 203.827 108.712C203.283 109.368 203.011 110.264 203.011 111.4V117.16C203.011 117.832 202.683 118.168 202.027 118.168ZM225.51 118.216C224.79 118.216 224.062 118.128 223.326 117.952C222.606 117.776 221.934 117.472 221.31 117.04C221.15 116.928 221.038 116.8 220.974 116.656C220.91 116.496 220.886 116.344 220.902 116.2C220.934 116.04 220.998 115.904 221.094 115.792C221.206 115.68 221.334 115.616 221.478 115.6C221.638 115.568 221.814 115.6 222.006 115.696C222.63 116.08 223.23 116.352 223.806 116.512C224.398 116.656 224.982 116.728 225.558 116.728C226.47 116.728 227.158 116.56 227.622 116.224C228.086 115.888 228.318 115.432 228.318 114.856C228.318 114.408 228.166 114.056 227.862 113.8C227.558 113.528 227.078 113.32 226.422 113.176L224.238 112.696C223.23 112.488 222.478 112.128 221.982 111.616C221.502 111.104 221.262 110.44 221.262 109.624C221.262 108.904 221.446 108.288 221.814 107.776C222.198 107.248 222.734 106.84 223.422 106.552C224.11 106.264 224.91 106.12 225.822 106.12C226.526 106.12 227.19 106.216 227.814 106.408C228.454 106.584 229.03 106.872 229.542 107.272C229.702 107.384 229.806 107.52 229.854 107.68C229.918 107.824 229.926 107.976 229.878 108.136C229.846 108.28 229.774 108.408 229.662 108.52C229.55 108.616 229.414 108.672 229.254 108.688C229.094 108.704 228.926 108.656 228.75 108.544C228.27 108.224 227.782 107.992 227.286 107.848C226.79 107.688 226.302 107.608 225.822 107.608C224.926 107.608 224.246 107.784 223.782 108.136C223.318 108.488 223.086 108.952 223.086 109.528C223.086 109.976 223.23 110.344 223.518 110.632C223.806 110.92 224.254 111.128 224.862 111.256L227.046 111.712C228.086 111.936 228.862 112.296 229.374 112.792C229.902 113.272 230.166 113.928 230.166 114.76C230.166 115.816 229.742 116.656 228.894 117.28C228.046 117.904 226.918 118.216 225.51 118.216Z" fill="#00120B"/>
<path d="M70.75 22.475C70.99 25.205 70.705 27.995 69.895 30.845C69.085 33.695 67.87 36.515 66.25 39.305C64.63 42.095 62.665 44.81 60.355 47.45C58.075 50.06 55.555 52.505 52.795 54.785C50.065 57.035 47.17 59.075 44.11 60.905C41.05 62.735 37.945 64.235 34.795 65.405C34.855 67.475 35.02 69.575 35.29 71.705C35.56 73.805 35.98 75.77 36.55 77.6C37.12 79.43 37.87 81.05 38.8 82.46C39.73 83.9 40.9 84.98 42.31 85.7C42.85 85.97 43.09 86.27 43.03 86.6C43 86.93 42.82 87.23 42.49 87.5C42.16 87.8 41.725 88.04 41.185 88.22C40.675 88.4 40.195 88.49 39.745 88.49C38.395 88.46 37.195 88.115 36.145 87.455C35.095 86.795 34.18 85.925 33.4 84.845C32.62 83.765 31.945 82.52 31.375 81.11C30.835 79.73 30.37 78.26 29.98 76.7C29.62 75.14 29.335 73.565 29.125 71.975C28.915 70.355 28.75 68.795 28.63 67.295C27.64 67.535 26.665 67.73 25.705 67.88C24.775 68 23.83 68.09 22.87 68.15C20.92 71.51 19.255 74.51 17.875 77.15C16.495 79.82 15.565 81.875 15.085 83.315C14.905 83.855 14.635 84.2 14.275 84.35C13.915 84.53 13.525 84.59 13.105 84.53C12.685 84.47 12.25 84.305 11.8 84.035C11.38 83.765 11.005 83.45 10.675 83.09C10.345 82.73 10.09 82.34 9.91 81.92C9.76 81.5 9.745 81.11 9.865 80.75C10.285 79.34 11.02 77.51 12.07 75.26C13.15 73.04 14.455 70.535 15.985 67.745C14.935 67.535 13.915 67.265 12.925 66.935C11.965 66.605 11.035 66.185 10.135 65.675C9.715 65.465 9.325 65.105 8.965 64.595C8.605 64.085 8.29 63.53 8.02 62.93C7.78 62.3 7.6 61.685 7.48 61.085C7.39 60.485 7.405 59.975 7.525 59.555C7.645 59.105 7.87 58.805 8.2 58.655C8.56 58.505 9.07 58.595 9.73 58.925C12.88 60.425 16.12 61.295 19.45 61.535C21.1 58.655 22.84 55.685 24.67 52.625C26.5 49.565 28.315 46.595 30.115 43.715C31.915 40.835 33.655 38.105 35.335 35.525C37.045 32.915 38.575 30.635 39.925 28.685C41.305 26.705 42.475 25.115 43.435 23.915C44.395 22.715 45.04 22.04 45.37 21.89C46.12 21.59 46.975 21.5 47.935 21.62C48.895 21.71 49.735 21.905 50.455 22.205C51.205 22.505 51.715 22.865 51.985 23.285C52.285 23.705 52.135 24.095 51.535 24.455C51.145 24.665 50.5 25.34 49.6 26.48C48.7 27.62 47.605 29.105 46.315 30.935C45.055 32.735 43.645 34.805 42.085 37.145C40.525 39.485 38.89 41.99 37.18 44.66C35.5 47.3 33.775 50.03 32.005 52.85C30.265 55.64 28.585 58.4 26.965 61.13C30.385 60.53 33.73 59.45 37 57.89C40.27 56.3 43.345 54.44 46.225 52.31C49.105 50.15 51.73 47.81 54.1 45.29C56.47 42.77 58.48 40.265 60.13 37.775C61.78 35.285 62.995 32.915 63.775 30.665C64.585 28.415 64.855 26.48 64.585 24.86C64.345 23.39 63.805 22.22 62.965 21.35C62.125 20.48 61.045 19.835 59.725 19.415C58.435 18.995 56.935 18.77 55.225 18.74C53.545 18.71 51.715 18.785 49.735 18.965C47.065 19.235 44.23 19.76 41.23 20.54C38.23 21.29 35.23 22.265 32.23 23.465C29.23 24.635 26.305 25.985 23.455 27.515C20.635 29.015 18.07 30.635 15.76 32.375C13.45 34.115 11.485 35.945 9.865 37.865C8.245 39.785 7.135 41.72 6.535 43.67C6.355 44.24 6.28 44.75 6.31 45.2C6.37 45.62 6.43 45.98 6.49 46.28C6.55 46.58 6.565 46.82 6.535 47C6.535 47.15 6.415 47.225 6.175 47.225C5.935 47.225 5.5 47.18 4.87 47.09C4.27 46.97 3.67 46.745 3.07 46.415C2.47 46.085 1.945 45.62 1.495 45.02C1.075 44.39 0.91 43.55 1 42.5C1.21 40.34 2.005 38.21 3.385 36.11C4.765 33.98 6.58 31.94 8.83 29.99C11.08 28.01 13.66 26.15 16.57 24.41C19.48 22.64 22.57 21.05 25.84 19.64C29.11 18.2 32.455 16.97 35.875 15.95C39.295 14.9 42.64 14.105 45.91 13.565C49.18 13.025 52.27 12.77 55.18 12.8C58.09 12.8 60.67 13.145 62.92 13.835C65.17 14.525 66.985 15.575 68.365 16.985C69.745 18.395 70.54 20.225 70.75 22.475ZM77.1404 50.96C77.7104 50.57 78.4154 50.405 79.2554 50.465C80.0954 50.495 80.8604 50.69 81.5504 51.05C82.2404 51.38 82.7654 51.83 83.1254 52.4C83.4854 52.97 83.4854 53.555 83.1254 54.155C83.0054 54.335 82.7954 54.665 82.4954 55.145C82.1954 55.625 81.8354 56.18 81.4154 56.81C81.0254 57.44 80.6204 58.115 80.2004 58.835C79.8104 59.525 79.4654 60.17 79.1654 60.77C78.8954 61.34 78.7004 61.835 78.5804 62.255C78.4604 62.645 78.4904 62.87 78.6704 62.93C79.3004 63.11 80.0354 63.065 80.8754 62.795C81.7154 62.525 82.5704 62.105 83.4404 61.535C84.3404 60.935 85.2104 60.23 86.0504 59.42C86.8904 58.58 87.6254 57.695 88.2554 56.765C88.5254 56.375 88.8404 56.225 89.2004 56.315C89.5904 56.375 89.9204 56.585 90.1904 56.945C90.4604 57.275 90.6404 57.71 90.7304 58.25C90.8204 58.79 90.7154 59.33 90.4154 59.87C89.9654 60.68 89.2304 61.595 88.2104 62.615C87.2204 63.605 86.0654 64.505 84.7454 65.315C83.4554 66.095 82.0454 66.68 80.5154 67.07C79.0154 67.43 77.5454 67.37 76.1054 66.89C75.4754 66.68 74.9054 66.365 74.3954 65.945C73.5554 66.905 72.6554 67.835 71.6954 68.735C70.7654 69.635 69.8054 70.445 68.8154 71.165C67.8254 71.885 66.8054 72.485 65.7554 72.965C64.7054 73.415 63.6404 73.7 62.5604 73.82C62.2004 73.85 61.7354 73.88 61.1654 73.91C60.6254 73.91 60.0404 73.85 59.4104 73.73C58.7804 73.58 58.1504 73.34 57.5204 73.01C56.9204 72.68 56.3804 72.2 55.9004 71.57C55.4504 70.94 55.1054 70.13 54.8654 69.14C54.6254 68.12 54.5654 66.86 54.6854 65.36C54.7754 64.13 55.1204 62.735 55.7204 61.175C56.3204 59.585 57.1154 57.965 58.1054 56.315C59.0954 54.665 60.2354 53.045 61.5254 51.455C62.8454 49.865 64.2704 48.44 65.8004 47.18C67.3304 45.92 68.9354 44.885 70.6154 44.075C72.3254 43.265 74.0654 42.815 75.8354 42.725C77.0654 42.665 78.1154 42.74 78.9854 42.95C79.8854 43.16 80.6204 43.445 81.1904 43.805C81.7604 44.165 82.1804 44.585 82.4504 45.065C82.7504 45.545 82.9154 46.025 82.9454 46.505C82.9754 47.045 82.8854 47.555 82.6754 48.035C82.4954 48.515 82.2554 48.92 81.9554 49.25C81.6554 49.58 81.3404 49.79 81.0104 49.88C80.7104 49.97 80.4704 49.895 80.2904 49.655C79.6904 48.845 78.9254 48.32 77.9954 48.08C77.0654 47.81 76.1204 47.795 75.1604 48.035C73.5104 48.455 71.9804 49.13 70.5704 50.06C69.1904 50.96 67.9304 51.995 66.7904 53.165C65.6804 54.335 64.6904 55.565 63.8204 56.855C62.9504 58.145 62.2154 59.39 61.6154 60.59C61.0454 61.79 60.5954 62.87 60.2654 63.83C59.9354 64.79 59.7554 65.525 59.7254 66.035C59.6654 66.755 59.7254 67.34 59.9054 67.79C60.1154 68.24 60.3704 68.6 60.6704 68.87C61.0004 69.11 61.3454 69.275 61.7054 69.365C62.0654 69.455 62.3804 69.5 62.6504 69.5C63.3404 69.47 64.0904 69.23 64.9004 68.78C65.7404 68.3 66.5804 67.685 67.4204 66.935C68.2904 66.155 69.1604 65.285 70.0304 64.325C70.9004 63.365 71.7404 62.39 72.5504 61.4C72.4904 60.47 72.5504 59.495 72.7304 58.475C72.9404 57.455 73.2404 56.48 73.6304 55.55C74.0504 54.59 74.5454 53.72 75.1154 52.94C75.7154 52.13 76.3904 51.47 77.1404 50.96ZM129.79 47.045C128.02 50.225 126.37 53.465 124.84 56.765C123.31 60.065 121.735 63.44 120.115 66.89C119.755 67.67 119.545 68.24 119.485 68.6C119.455 68.96 119.515 69.185 119.665 69.275C119.845 69.335 120.085 69.29 120.385 69.14C120.715 68.96 121.045 68.735 121.375 68.465C122.155 67.865 123.055 67.115 124.075 66.215C125.125 65.285 126.16 64.325 127.18 63.335C128.2 62.345 129.16 61.37 130.06 60.41C130.96 59.42 131.68 58.535 132.22 57.755C132.58 57.245 132.955 56.975 133.345 56.945C133.735 56.915 134.05 57.065 134.29 57.395C134.53 57.695 134.665 58.16 134.695 58.79C134.725 59.42 134.56 60.125 134.2 60.905C134.08 61.145 133.75 61.67 133.21 62.48C132.67 63.26 131.965 64.175 131.095 65.225C130.225 66.275 129.235 67.37 128.125 68.51C127.045 69.62 125.89 70.61 124.66 71.48C123.46 72.35 122.23 73.025 120.97 73.505C119.71 73.985 118.51 74.09 117.37 73.82C115.78 73.46 114.79 72.59 114.4 71.21C114.04 69.8 114.16 68.105 114.76 66.125C115.42 63.965 116.185 61.955 117.055 60.095C117.925 58.235 118.75 56.585 119.53 55.145C120.31 53.705 121 52.505 121.6 51.545C122.2 50.555 122.59 49.88 122.77 49.52C122.92 49.22 122.935 49.055 122.815 49.025C122.725 48.995 122.575 49.04 122.365 49.16C122.155 49.25 121.93 49.385 121.69 49.565C121.45 49.745 121.27 49.88 121.15 49.97C120.4 50.48 119.47 51.215 118.36 52.175C117.28 53.105 116.125 54.17 114.895 55.37C113.695 56.54 112.48 57.815 111.25 59.195C110.02 60.575 108.88 61.97 107.83 63.38C106.81 64.76 105.94 66.125 105.22 67.475C104.53 68.825 104.095 70.055 103.915 71.165C103.945 71.105 103.96 71 103.96 70.85C103.96 70.67 103.975 70.49 104.005 70.31C103.735 71.18 103.63 71.9 103.69 72.47C103.69 72.62 103.645 72.785 103.555 72.965C103.495 73.145 103.375 73.31 103.195 73.46C103.015 73.61 102.76 73.73 102.43 73.82C102.13 73.88 101.755 73.88 101.305 73.82C100.795 73.73 100.375 73.52 100.045 73.19C99.715 72.83 99.475 72.41 99.325 71.93C99.175 71.45 99.085 70.94 99.055 70.4C99.055 69.86 99.115 69.35 99.235 68.87C99.865 66.26 100.615 63.875 101.485 61.715C102.385 59.525 103.255 57.605 104.095 55.955C104.965 54.275 105.73 52.895 106.39 51.815C107.05 50.735 107.47 49.985 107.65 49.565C107.8 49.265 107.815 49.1 107.695 49.07C107.605 49.04 107.455 49.085 107.245 49.205C107.035 49.295 106.81 49.43 106.57 49.61C106.33 49.79 106.15 49.925 106.03 50.015C105.34 50.495 104.515 51.14 103.555 51.95C102.595 52.73 101.575 53.645 100.495 54.695C99.415 55.715 98.32 56.84 97.21 58.07C96.1 59.27 95.035 60.5 94.015 61.76C93.025 63.02 92.125 64.28 91.315 65.54C90.505 66.77 89.875 67.955 89.425 69.095C89.365 69.335 89.32 69.575 89.29 69.815C89.29 70.055 89.275 70.28 89.245 70.49C89.095 71.93 88.72 72.905 88.12 73.415C87.52 73.925 86.86 73.895 86.14 73.325C85.63 72.905 85.21 72.305 84.88 71.525C84.52 70.745 84.37 69.59 84.43 68.06C84.46 67.1 84.685 65.96 85.105 64.64C85.495 63.29 85.99 61.865 86.59 60.365C87.22 58.835 87.91 57.29 88.66 55.73C89.41 54.17 90.16 52.7 90.91 51.32C91.66 49.94 92.365 48.71 93.025 47.63C93.715 46.52 94.27 45.68 94.69 45.11C95.38 44.18 96.22 43.52 97.21 43.13C98.23 42.74 99.145 42.575 99.955 42.635C100.795 42.665 101.41 42.905 101.8 43.355C102.19 43.775 102.115 44.36 101.575 45.11C100.525 46.58 99.565 47.975 98.695 49.295C97.825 50.585 97.03 51.83 96.31 53.03C97.45 51.68 98.665 50.36 99.955 49.07C101.245 47.78 102.565 46.655 103.915 45.695C105.295 44.705 106.705 43.94 108.145 43.4C109.585 42.83 111.025 42.605 112.465 42.725C113.335 42.785 113.98 42.98 114.4 43.31C114.82 43.64 115.09 44.015 115.21 44.435C115.33 44.855 115.315 45.305 115.165 45.785C115.045 46.265 114.88 46.7 114.67 47.09C114.49 47.39 114.13 48.035 113.59 49.025C113.08 49.985 112.465 51.17 111.745 52.58C112.855 51.26 114.04 49.985 115.3 48.755C116.59 47.495 117.91 46.4 119.26 45.47C120.61 44.54 121.975 43.82 123.355 43.31C124.765 42.77 126.175 42.56 127.585 42.68C128.455 42.74 129.1 42.935 129.52 43.265C129.94 43.595 130.21 43.97 130.33 44.39C130.45 44.81 130.435 45.26 130.285 45.74C130.165 46.22 130 46.655 129.79 47.045ZM140.512 44.03C141.322 43.31 142.162 42.83 143.032 42.59C143.902 42.35 144.667 42.26 145.327 42.32C145.987 42.35 146.482 42.5 146.812 42.77C147.172 43.01 147.247 43.25 147.037 43.49C146.377 44.27 145.642 45.26 144.832 46.46C144.022 47.63 143.182 48.92 142.312 50.33C141.472 51.74 140.632 53.225 139.792 54.785C138.952 56.315 138.157 57.815 137.407 59.285C136.657 60.755 135.982 62.15 135.382 63.47C134.812 64.79 134.347 65.93 133.987 66.89C133.687 67.67 133.507 68.24 133.447 68.6C133.417 68.96 133.462 69.185 133.582 69.275C133.732 69.335 133.942 69.29 134.212 69.14C134.512 68.96 134.827 68.735 135.157 68.465C135.937 67.865 136.837 67.115 137.857 66.215C138.907 65.285 139.942 64.325 140.962 63.335C141.982 62.345 142.942 61.37 143.842 60.41C144.742 59.42 145.462 58.535 146.002 57.755C146.362 57.245 146.737 56.975 147.127 56.945C147.517 56.915 147.832 57.065 148.072 57.395C148.312 57.695 148.447 58.16 148.477 58.79C148.507 59.42 148.342 60.125 147.982 60.905C147.862 61.145 147.532 61.67 146.992 62.48C146.452 63.26 145.747 64.175 144.877 65.225C144.007 66.275 143.017 67.37 141.907 68.51C140.827 69.62 139.672 70.61 138.442 71.48C137.242 72.35 136.012 73.025 134.752 73.505C133.492 73.985 132.292 74.09 131.152 73.82C129.892 73.52 129.082 72.83 128.722 71.75C128.362 70.67 128.302 69.38 128.542 67.88C128.812 66.11 129.337 64.13 130.117 61.94C130.927 59.75 131.887 57.56 132.997 55.37C134.107 53.15 135.307 51.05 136.597 49.07C137.917 47.06 139.222 45.38 140.512 44.03ZM146.002 34.355C146.302 33.815 146.662 33.35 147.082 32.96C147.502 32.54 147.952 32.225 148.432 32.015C148.912 31.805 149.392 31.7 149.872 31.7C150.352 31.7 150.802 31.82 151.222 32.06C152.062 32.54 152.557 33.335 152.707 34.445C152.857 35.525 152.617 36.62 151.987 37.73C151.687 38.27 151.312 38.75 150.862 39.17C150.442 39.56 149.992 39.86 149.512 40.07C149.062 40.25 148.582 40.34 148.072 40.34C147.592 40.34 147.142 40.22 146.722 39.98C146.302 39.74 145.972 39.425 145.732 39.035C145.492 38.615 145.327 38.15 145.237 37.64C145.177 37.13 145.207 36.59 145.327 36.02C145.447 35.45 145.672 34.895 146.002 34.355ZM170.425 55.235C168.685 58.355 167.02 61.565 165.43 64.865C163.87 68.135 162.31 71.36 160.75 74.54C162.25 74.78 163.63 75.23 164.89 75.89C166.18 76.58 167.125 77.6 167.725 78.95C167.995 79.58 168.145 80.18 168.175 80.75C168.205 81.32 168.13 81.77 167.95 82.1C167.77 82.43 167.485 82.595 167.095 82.595C166.735 82.625 166.285 82.4 165.745 81.92C164.905 81.17 163.84 80.57 162.55 80.12C161.29 79.67 159.895 79.37 158.365 79.22C157.765 80.33 157.165 81.41 156.565 82.46C155.995 83.51 155.41 84.515 154.81 85.475C153.01 88.355 151.09 90.77 149.05 92.72C147.04 94.7 145.06 96.245 143.11 97.355C141.13 98.495 139.27 99.215 137.53 99.515C135.76 99.815 134.23 99.725 132.94 99.245C131.65 98.795 130.675 97.955 130.015 96.725C129.325 95.525 129.085 93.965 129.295 92.045C129.385 91.235 129.67 90.275 130.15 89.165C130.63 88.055 131.32 86.885 132.22 85.655C133.12 84.455 134.245 83.24 135.595 82.01C136.945 80.81 138.565 79.7 140.455 78.68C142.315 77.66 144.43 76.775 146.8 76.025C149.2 75.305 151.9 74.81 154.9 74.54C155.32 73.79 155.71 73.04 156.07 72.29C156.46 71.54 156.835 70.805 157.195 70.085C155.845 71.195 154.495 72.125 153.145 72.875C151.795 73.625 150.505 74 149.275 74C148.375 74 147.565 73.835 146.845 73.505C146.125 73.145 145.51 72.695 145 72.155C144.52 71.585 144.145 70.94 143.875 70.22C143.635 69.47 143.515 68.69 143.515 67.88C143.545 65.45 143.95 63.14 144.73 60.95C145.54 58.73 146.56 56.675 147.79 54.785C149.02 52.895 150.415 51.2 151.975 49.7C153.535 48.2 155.095 46.925 156.655 45.875C158.215 44.825 159.7 44.03 161.11 43.49C162.52 42.92 163.72 42.65 164.71 42.68C165.88 42.71 166.885 42.935 167.725 43.355C168.565 43.745 169.255 44.24 169.795 44.84C170.335 45.41 170.74 46.04 171.01 46.73C171.28 47.39 171.43 48.035 171.46 48.665C171.52 49.265 171.475 49.79 171.325 50.24C171.175 50.66 170.95 50.915 170.65 51.005C169.9 51.245 169.33 51.23 168.94 50.96C168.55 50.66 168.175 50.285 167.815 49.835C167.485 49.385 167.08 48.95 166.6 48.53C166.12 48.11 165.415 47.885 164.485 47.855C163.435 47.825 162.34 48.095 161.2 48.665C160.06 49.205 158.935 49.94 157.825 50.87C156.745 51.8 155.695 52.865 154.675 54.065C153.685 55.265 152.8 56.525 152.02 57.845C151.24 59.135 150.595 60.425 150.085 61.715C149.575 63.005 149.26 64.19 149.14 65.27C148.99 66.65 149.11 67.58 149.5 68.06C149.89 68.51 150.445 68.63 151.165 68.42C151.915 68.18 152.785 67.67 153.775 66.89C154.795 66.08 155.86 65.12 156.97 64.01C158.11 62.87 159.25 61.625 160.39 60.275C161.56 58.895 162.67 57.53 163.72 56.18C163.72 56.18 163.75 56.15 163.81 56.09L164.17 55.505C164.92 54.365 165.745 53.57 166.645 53.12C167.575 52.67 168.385 52.475 169.075 52.535C169.765 52.595 170.26 52.88 170.56 53.39C170.89 53.87 170.845 54.485 170.425 55.235ZM152.29 79.355C150.52 79.625 148.75 80.06 146.98 80.66C145.21 81.26 143.545 82.04 141.985 83C140.395 83.99 138.97 85.16 137.71 86.51C136.42 87.89 135.4 89.465 134.65 91.235C134.08 92.555 133.945 93.485 134.245 94.025C134.545 94.595 135.115 94.91 135.955 94.97C137.275 95.09 138.625 94.775 140.005 94.025C141.355 93.305 142.69 92.27 144.01 90.92C145.36 89.57 146.68 87.98 147.97 86.15C149.29 84.35 150.55 82.415 151.75 80.345L152.29 79.355ZM197.335 44.03C198.145 43.31 198.985 42.83 199.855 42.59C200.725 42.35 201.49 42.26 202.15 42.32C202.81 42.35 203.305 42.5 203.635 42.77C203.995 43.01 204.07 43.25 203.86 43.49C203.17 44.27 202.42 45.26 201.61 46.46C200.83 47.63 200.005 48.92 199.135 50.33C198.295 51.74 197.455 53.225 196.615 54.785C195.775 56.315 194.98 57.815 194.23 59.285C193.48 60.755 192.805 62.15 192.205 63.47C191.635 64.79 191.17 65.93 190.81 66.89C190.51 67.67 190.33 68.24 190.27 68.6C190.24 68.96 190.285 69.185 190.405 69.275C190.555 69.335 190.765 69.29 191.035 69.14C191.335 68.96 191.65 68.735 191.98 68.465C192.76 67.865 193.66 67.115 194.68 66.215C195.73 65.285 196.765 64.325 197.785 63.335C198.805 62.345 199.765 61.37 200.665 60.41C201.565 59.42 202.285 58.535 202.825 57.755C203.185 57.245 203.56 56.975 203.95 56.945C204.34 56.915 204.655 57.065 204.895 57.395C205.135 57.695 205.27 58.16 205.3 58.79C205.33 59.42 205.165 60.125 204.805 60.905C204.685 61.145 204.355 61.67 203.815 62.48C203.275 63.26 202.57 64.175 201.7 65.225C200.83 66.275 199.84 67.37 198.73 68.51C197.65 69.62 196.495 70.61 195.265 71.48C194.065 72.35 192.835 73.025 191.575 73.505C190.315 73.985 189.115 74.09 187.975 73.82C186.715 73.52 185.905 72.83 185.545 71.75C185.185 70.67 185.125 69.38 185.365 67.88C185.365 67.76 185.395 67.58 185.455 67.34C184.525 68.33 183.535 69.275 182.485 70.175C181.465 71.045 180.415 71.795 179.335 72.425C178.255 73.055 177.16 73.505 176.05 73.775C174.97 74.045 173.92 74.06 172.9 73.82C171.64 73.52 170.83 72.83 170.47 71.75C170.11 70.67 170.05 69.38 170.29 67.88C170.56 66.11 171.085 64.13 171.865 61.94C172.675 59.75 173.635 57.56 174.745 55.37C175.855 53.15 177.055 51.05 178.345 49.07C179.665 47.06 180.97 45.38 182.26 44.03C183.07 43.31 183.91 42.83 184.78 42.59C185.65 42.35 186.415 42.26 187.075 42.32C187.735 42.35 188.23 42.5 188.56 42.77C188.92 43.01 188.995 43.25 188.785 43.49C188.125 44.27 187.39 45.26 186.58 46.46C185.77 47.63 184.93 48.92 184.06 50.33C183.22 51.74 182.38 53.225 181.54 54.785C180.7 56.315 179.905 57.815 179.155 59.285C178.405 60.755 177.73 62.15 177.13 63.47C176.56 64.79 176.095 65.93 175.735 66.89C175.315 68.06 175.24 68.78 175.51 69.05C175.81 69.32 176.335 69.245 177.085 68.825C177.835 68.405 178.765 67.7 179.875 66.71C180.985 65.72 182.14 64.58 183.34 63.29C184.57 61.97 185.785 60.56 186.985 59.06C188.185 57.56 189.25 56.075 190.18 54.605C191.26 52.535 192.415 50.585 193.645 48.755C194.875 46.895 196.105 45.32 197.335 44.03ZM214.186 66.89C213.826 67.67 213.616 68.24 213.556 68.6C213.526 68.96 213.586 69.185 213.736 69.275C213.916 69.335 214.156 69.29 214.456 69.14C214.786 68.96 215.116 68.735 215.446 68.465C216.226 67.865 217.126 67.115 218.146 66.215C219.196 65.285 220.231 64.325 221.251 63.335C222.271 62.345 223.231 61.37 224.131 60.41C225.031 59.42 225.751 58.535 226.291 57.755C226.651 57.245 227.026 56.975 227.416 56.945C227.806 56.915 228.121 57.065 228.361 57.395C228.601 57.695 228.736 58.16 228.766 58.79C228.796 59.42 228.631 60.125 228.271 60.905C228.181 61.145 227.836 61.67 227.236 62.48C226.666 63.26 225.916 64.175 224.986 65.225C224.086 66.245 223.051 67.31 221.881 68.42C220.711 69.53 219.481 70.535 218.191 71.435C216.931 72.305 215.641 72.98 214.321 73.46C213.031 73.94 211.801 74.06 210.631 73.82C209.461 73.52 208.591 72.965 208.021 72.155C207.451 71.345 207.271 70.115 207.481 68.465C207.571 67.745 207.766 66.95 208.066 66.08C208.396 65.18 208.801 64.265 209.281 63.335C209.761 62.375 210.271 61.4 210.811 60.41C211.381 59.42 211.966 58.475 212.566 57.575C213.916 55.445 215.431 53.24 217.111 50.96C216.961 50.96 216.766 50.975 216.526 51.005C216.286 51.035 216.001 51.065 215.671 51.095C215.371 51.125 215.026 51.125 214.636 51.095C214.276 51.035 213.916 50.93 213.556 50.78C212.686 51.98 211.741 53.3 210.721 54.74C209.701 56.15 208.651 57.74 207.571 59.51C206.521 61.25 205.456 63.2 204.376 65.36C203.296 67.49 202.246 69.86 201.226 72.47C200.986 73.04 200.686 73.43 200.326 73.64C199.936 73.82 199.546 73.805 199.156 73.595C198.766 73.355 198.436 72.92 198.166 72.29C197.866 71.63 197.701 70.76 197.671 69.68C197.641 68.9 197.851 67.925 198.301 66.755C198.751 65.585 199.351 64.31 200.101 62.93C200.851 61.52 201.691 60.065 202.621 58.565C203.581 57.035 204.556 55.565 205.546 54.155C206.536 52.715 207.496 51.365 208.426 50.105C209.386 48.845 210.226 47.78 210.946 46.91C210.796 45.77 210.931 44.6 211.351 43.4C211.771 42.17 212.356 41.03 213.106 39.98C213.886 38.93 214.741 38.03 215.671 37.28C216.631 36.5 217.561 35.99 218.461 35.75C218.941 35.63 219.451 35.705 219.991 35.975C220.561 36.245 221.056 36.59 221.476 37.01C221.926 37.4 222.241 37.82 222.421 38.27C222.631 38.72 222.601 39.065 222.331 39.305C221.371 40.175 220.531 41.03 219.811 41.87C219.091 42.71 218.476 43.475 217.966 44.165C217.396 44.945 216.901 45.71 216.481 46.46C217.441 46.4 218.341 46.34 219.181 46.28C219.901 46.22 220.636 46.16 221.386 46.1C222.136 46.04 222.736 45.95 223.186 45.83C223.636 45.74 224.026 45.815 224.356 46.055C224.716 46.265 225.016 46.55 225.256 46.91C225.496 47.24 225.661 47.57 225.751 47.9C225.871 48.23 225.901 48.44 225.841 48.53C225.811 48.59 225.556 48.95 225.076 49.61C224.596 50.24 223.981 51.065 223.231 52.085C222.511 53.075 221.701 54.215 220.801 55.505C219.931 56.795 219.061 58.115 218.191 59.465C217.351 60.785 216.571 62.09 215.851 63.38C215.131 64.67 214.576 65.84 214.186 66.89ZM249.366 44.03C250.176 43.31 251.016 42.83 251.886 42.59C252.756 42.35 253.521 42.26 254.181 42.32C254.841 42.35 255.336 42.5 255.666 42.77C256.026 43.01 256.101 43.25 255.891 43.49C255.201 44.27 254.451 45.26 253.641 46.46C252.861 47.63 252.036 48.92 251.166 50.33C250.326 51.74 249.486 53.225 248.646 54.785C247.806 56.315 247.011 57.815 246.261 59.285C245.511 60.755 244.836 62.15 244.236 63.47C243.666 64.79 243.201 65.93 242.841 66.89C242.541 67.67 242.361 68.24 242.301 68.6C242.271 68.96 242.316 69.185 242.436 69.275C242.586 69.335 242.796 69.29 243.066 69.14C243.366 68.96 243.681 68.735 244.011 68.465C244.791 67.865 245.691 67.115 246.711 66.215C247.761 65.285 248.796 64.325 249.816 63.335C250.836 62.345 251.796 61.37 252.696 60.41C253.596 59.42 254.316 58.535 254.856 57.755C255.216 57.245 255.591 56.975 255.981 56.945C256.371 56.915 256.686 57.065 256.926 57.395C257.166 57.695 257.301 58.16 257.331 58.79C257.361 59.42 257.196 60.125 256.836 60.905C256.716 61.145 256.386 61.67 255.846 62.48C255.306 63.26 254.601 64.175 253.731 65.225C252.861 66.275 251.871 67.37 250.761 68.51C249.681 69.62 248.526 70.61 247.296 71.48C246.096 72.35 244.866 73.025 243.606 73.505C242.346 73.985 241.146 74.09 240.006 73.82C238.746 73.52 237.936 72.83 237.576 71.75C237.216 70.67 237.156 69.38 237.396 67.88C237.396 67.76 237.426 67.58 237.486 67.34C236.556 68.33 235.566 69.275 234.516 70.175C233.496 71.045 232.446 71.795 231.366 72.425C230.286 73.055 229.191 73.505 228.081 73.775C227.001 74.045 225.951 74.06 224.931 73.82C223.671 73.52 222.861 72.83 222.501 71.75C222.141 70.67 222.081 69.38 222.321 67.88C222.591 66.11 223.116 64.13 223.896 61.94C224.706 59.75 225.666 57.56 226.776 55.37C227.886 53.15 229.086 51.05 230.376 49.07C231.696 47.06 233.001 45.38 234.291 44.03C235.101 43.31 235.941 42.83 236.811 42.59C237.681 42.35 238.446 42.26 239.106 42.32C239.766 42.35 240.261 42.5 240.591 42.77C240.951 43.01 241.026 43.25 240.816 43.49C240.156 44.27 239.421 45.26 238.611 46.46C237.801 47.63 236.961 48.92 236.091 50.33C235.251 51.74 234.411 53.225 233.571 54.785C232.731 56.315 231.936 57.815 231.186 59.285C230.436 60.755 229.761 62.15 229.161 63.47C228.591 64.79 228.126 65.93 227.766 66.89C227.346 68.06 227.271 68.78 227.541 69.05C227.841 69.32 228.366 69.245 229.116 68.825C229.866 68.405 230.796 67.7 231.906 66.71C233.016 65.72 234.171 64.58 235.371 63.29C236.601 61.97 237.816 60.56 239.016 59.06C240.216 57.56 241.281 56.075 242.211 54.605C243.291 52.535 244.446 50.585 245.676 48.755C246.906 46.895 248.136 45.32 249.366 44.03ZM297.178 47.045C295.408 50.225 293.758 53.465 292.228 56.765C290.698 60.065 289.123 63.44 287.503 66.89C287.143 67.67 286.933 68.24 286.873 68.6C286.843 68.96 286.903 69.185 287.053 69.275C287.233 69.335 287.473 69.29 287.773 69.14C288.103 68.96 288.433 68.735 288.763 68.465C289.543 67.865 290.443 67.115 291.463 66.215C292.513 65.285 293.548 64.325 294.568 63.335C295.588 62.345 296.548 61.37 297.448 60.41C298.348 59.42 299.068 58.535 299.608 57.755C299.968 57.245 300.343 56.975 300.733 56.945C301.123 56.915 301.438 57.065 301.678 57.395C301.918 57.695 302.053 58.16 302.083 58.79C302.113 59.42 301.948 60.125 301.588 60.905C301.468 61.145 301.138 61.67 300.598 62.48C300.058 63.26 299.353 64.175 298.483 65.225C297.613 66.275 296.623 67.37 295.513 68.51C294.433 69.62 293.278 70.61 292.048 71.48C290.848 72.35 289.618 73.025 288.358 73.505C287.098 73.985 285.898 74.09 284.758 73.82C283.168 73.46 282.178 72.59 281.788 71.21C281.428 69.8 281.548 68.105 282.148 66.125C282.808 63.965 283.573 61.955 284.443 60.095C285.313 58.235 286.138 56.585 286.918 55.145C287.698 53.705 288.388 52.505 288.988 51.545C289.588 50.555 289.978 49.88 290.158 49.52C290.308 49.22 290.323 49.055 290.203 49.025C290.113 48.995 289.963 49.04 289.753 49.16C289.543 49.25 289.318 49.385 289.078 49.565C288.838 49.745 288.658 49.88 288.538 49.97C287.788 50.48 286.858 51.215 285.748 52.175C284.668 53.105 283.513 54.17 282.283 55.37C281.083 56.54 279.868 57.815 278.638 59.195C277.408 60.575 276.268 61.97 275.218 63.38C274.198 64.76 273.328 66.125 272.608 67.475C271.918 68.825 271.483 70.055 271.303 71.165C271.333 71.105 271.348 71 271.348 70.85C271.348 70.67 271.363 70.49 271.393 70.31C271.123 71.18 271.018 71.9 271.078 72.47C271.078 72.62 271.033 72.785 270.943 72.965C270.883 73.145 270.763 73.31 270.583 73.46C270.403 73.61 270.148 73.73 269.818 73.82C269.518 73.88 269.143 73.88 268.693 73.82C268.183 73.73 267.763 73.52 267.433 73.19C267.103 72.83 266.863 72.41 266.713 71.93C266.563 71.45 266.473 70.94 266.443 70.4C266.443 69.86 266.503 69.35 266.623 68.87C267.253 66.26 268.003 63.875 268.873 61.715C269.773 59.525 270.643 57.605 271.483 55.955C272.353 54.275 273.118 52.895 273.778 51.815C274.438 50.735 274.858 49.985 275.038 49.565C275.188 49.265 275.203 49.1 275.083 49.07C274.993 49.04 274.843 49.085 274.633 49.205C274.423 49.295 274.198 49.43 273.958 49.61C273.718 49.79 273.538 49.925 273.418 50.015C272.728 50.495 271.903 51.14 270.943 51.95C269.983 52.73 268.963 53.645 267.883 54.695C266.803 55.715 265.708 56.84 264.598 58.07C263.488 59.27 262.423 60.5 261.403 61.76C260.413 63.02 259.513 64.28 258.703 65.54C257.893 66.77 257.263 67.955 256.813 69.095C256.753 69.335 256.708 69.575 256.678 69.815C256.678 70.055 256.663 70.28 256.633 70.49C256.483 71.93 256.108 72.905 255.508 73.415C254.908 73.925 254.248 73.895 253.528 73.325C253.018 72.905 252.598 72.305 252.268 71.525C251.908 70.745 251.758 69.59 251.818 68.06C251.848 67.1 252.073 65.96 252.493 64.64C252.883 63.29 253.378 61.865 253.978 60.365C254.608 58.835 255.298 57.29 256.048 55.73C256.798 54.17 257.548 52.7 258.298 51.32C259.048 49.94 259.753 48.71 260.413 47.63C261.103 46.52 261.658 45.68 262.078 45.11C262.768 44.18 263.608 43.52 264.598 43.13C265.618 42.74 266.533 42.575 267.343 42.635C268.183 42.665 268.798 42.905 269.188 43.355C269.578 43.775 269.503 44.36 268.963 45.11C267.913 46.58 266.953 47.975 266.083 49.295C265.213 50.585 264.418 51.83 263.698 53.03C264.838 51.68 266.053 50.36 267.343 49.07C268.633 47.78 269.953 46.655 271.303 45.695C272.683 44.705 274.093 43.94 275.533 43.4C276.973 42.83 278.413 42.605 279.853 42.725C280.723 42.785 281.368 42.98 281.788 43.31C282.208 43.64 282.478 44.015 282.598 44.435C282.718 44.855 282.703 45.305 282.553 45.785C282.433 46.265 282.268 46.7 282.058 47.09C281.878 47.39 281.518 48.035 280.978 49.025C280.468 49.985 279.853 51.17 279.133 52.58C280.243 51.26 281.428 49.985 282.688 48.755C283.978 47.495 285.298 46.4 286.648 45.47C287.998 44.54 289.363 43.82 290.743 43.31C292.153 42.77 293.563 42.56 294.973 42.68C295.843 42.74 296.488 42.935 296.908 43.265C297.328 43.595 297.598 43.97 297.718 44.39C297.838 44.81 297.823 45.26 297.673 45.74C297.553 46.22 297.388 46.655 297.178 47.045ZM307.899 44.03C308.709 43.31 309.549 42.83 310.419 42.59C311.289 42.35 312.054 42.26 312.714 42.32C313.374 42.35 313.869 42.5 314.199 42.77C314.559 43.01 314.634 43.25 314.424 43.49C313.764 44.27 313.029 45.26 312.219 46.46C311.409 47.63 310.569 48.92 309.699 50.33C308.859 51.74 308.019 53.225 307.179 54.785C306.339 56.315 305.544 57.815 304.794 59.285C304.044 60.755 303.369 62.15 302.769 63.47C302.199 64.79 301.734 65.93 301.374 66.89C301.074 67.67 300.894 68.24 300.834 68.6C300.804 68.96 300.849 69.185 300.969 69.275C301.119 69.335 301.329 69.29 301.599 69.14C301.899 68.96 302.214 68.735 302.544 68.465C303.324 67.865 304.224 67.115 305.244 66.215C306.294 65.285 307.329 64.325 308.349 63.335C309.369 62.345 310.329 61.37 311.229 60.41C312.129 59.42 312.849 58.535 313.389 57.755C313.749 57.245 314.124 56.975 314.514 56.945C314.904 56.915 315.219 57.065 315.459 57.395C315.699 57.695 315.834 58.16 315.864 58.79C315.894 59.42 315.729 60.125 315.369 60.905C315.249 61.145 314.919 61.67 314.379 62.48C313.839 63.26 313.134 64.175 312.264 65.225C311.394 66.275 310.404 67.37 309.294 68.51C308.214 69.62 307.059 70.61 305.829 71.48C304.629 72.35 303.399 73.025 302.139 73.505C300.879 73.985 299.679 74.09 298.539 73.82C297.279 73.52 296.469 72.83 296.109 71.75C295.749 70.67 295.689 69.38 295.929 67.88C296.199 66.11 296.724 64.13 297.504 61.94C298.314 59.75 299.274 57.56 300.384 55.37C301.494 53.15 302.694 51.05 303.984 49.07C305.304 47.06 306.609 45.38 307.899 44.03ZM313.389 34.355C313.689 33.815 314.049 33.35 314.469 32.96C314.889 32.54 315.339 32.225 315.819 32.015C316.299 31.805 316.779 31.7 317.259 31.7C317.739 31.7 318.189 31.82 318.609 32.06C319.449 32.54 319.944 33.335 320.094 34.445C320.244 35.525 320.004 36.62 319.374 37.73C319.074 38.27 318.699 38.75 318.249 39.17C317.829 39.56 317.379 39.86 316.899 40.07C316.449 40.25 315.969 40.34 315.459 40.34C314.979 40.34 314.529 40.22 314.109 39.98C313.689 39.74 313.359 39.425 313.119 39.035C312.879 38.615 312.714 38.15 312.624 37.64C312.564 37.13 312.594 36.59 312.714 36.02C312.834 35.45 313.059 34.895 313.389 34.355ZM331.962 35.57C332.862 35.42 333.612 35.555 334.212 35.975C334.842 36.365 335.322 36.845 335.652 37.415C335.982 37.955 336.147 38.495 336.147 39.035C336.177 39.545 336.042 39.845 335.742 39.935C335.442 40.025 334.902 40.265 334.122 40.655C333.372 41.015 332.562 41.525 331.692 42.185C330.852 42.815 330.057 43.595 329.307 44.525C328.557 45.425 328.062 46.46 327.822 47.63C327.732 48.11 327.672 48.77 327.642 49.61C327.612 50.45 327.612 51.38 327.642 52.4C327.672 53.39 327.717 54.44 327.777 55.55C327.837 56.66 327.897 57.71 327.957 58.7C328.017 59.69 328.062 60.605 328.092 61.445C328.152 62.255 328.182 62.87 328.182 63.29C328.212 64.91 328.002 66.35 327.552 67.61C327.102 68.87 326.487 69.965 325.707 70.895C324.957 71.825 324.087 72.59 323.097 73.19C322.137 73.79 321.132 74.225 320.082 74.495C319.062 74.795 318.042 74.945 317.022 74.945C316.032 74.975 315.147 74.855 314.367 74.585C313.407 74.285 312.567 73.85 311.847 73.28C311.127 72.71 310.527 72.08 310.047 71.39C309.567 70.7 309.207 69.965 308.967 69.185C308.727 68.405 308.637 67.64 308.697 66.89C308.757 65.75 308.982 64.61 309.372 63.47C309.762 62.3 310.272 61.205 310.902 60.185C311.502 59.135 312.207 58.205 313.017 57.395C313.857 56.555 314.742 55.88 315.672 55.37C316.272 55.07 316.932 55.055 317.652 55.325C318.372 55.565 319.002 55.925 319.542 56.405C320.082 56.855 320.457 57.32 320.667 57.8C320.877 58.28 320.787 58.595 320.397 58.745C318.777 59.345 317.442 60.26 316.392 61.49C315.372 62.72 314.697 63.98 314.367 65.27C314.067 66.53 314.127 67.655 314.547 68.645C314.967 69.605 315.822 70.13 317.112 70.22C317.742 70.28 318.342 70.19 318.912 69.95C319.512 69.71 320.037 69.365 320.487 68.915C320.967 68.465 321.372 67.925 321.702 67.295C322.062 66.665 322.317 65.99 322.467 65.27C322.737 63.98 322.842 62.54 322.782 60.95C322.722 59.36 322.602 57.785 322.422 56.225C322.272 54.635 322.122 53.135 321.972 51.725C321.822 50.285 321.792 49.055 321.882 48.035C322.002 46.805 322.272 45.665 322.692 44.615C323.142 43.535 323.682 42.545 324.312 41.645C324.942 40.715 325.617 39.89 326.337 39.17C327.087 38.45 327.822 37.835 328.542 37.325C329.262 36.815 329.922 36.41 330.522 36.11C331.122 35.81 331.602 35.63 331.962 35.57Z" fill="#00120B"/>
</svg>
